# xmcd
#
# Track frame offsets: 
#        150
#        3847
#        23125
#        41411
#        61043
#        78331
#        94277
#        111675
#        133427
#        154137
#        173502
#        194278
#        213303
#        232968
#        251704
#        270147
#        286908
#        304634
#        321196
#        333614
#
# Disc length: 4700 seconds
#
# Revision: 0
# Processed by: cddbd v1.5.1PL0 Copyright (c) Steve Scherf et al.
# Submitted via: ExactAudioCopy v0.95a3
#
DISCID=0f125a14
DTITLE=Various Artist - ProДвижение Volume 1
DYEAR=2000
DGENRE=Pop
TTITLE0=Вирус - Intro
TTITLE1=Вирус - Мишени
TTITLE2=Никита - Мелодии Души
TTITLE3=DVD - Я Один
TTITLE4=Шура - Осень
TTITLE5=Наталья Лагода - Врут Мне Твои Глаза
TTITLE6=Алла Горбачева - Besame Mucho (Remake)
TTITLE7=Вирус - Ножки - 2
TTITLE8=Александр Буйнов - Люби, Как В Последний Раз
TTITLE9=Саша - Война
TTITLE10=Валерия - Не Обижай Меня
TTITLE11=Иванушки International - Беги
TTITLE12=Хамелион - Листья
TTITLE13=Dj Валдай - Хотеть Не Вредно
TTITLE14=Доктор Нужный - Пляж
TTITLE15=Мелисса - Открыта Моя Душа
TTITLE16=Николай Трубач - Ни За Что
TTITLE17=Hi-Fi - Глупые Люди
TTITLE18=Плазма - По Радио Сказали
TTITLE19=Кирпичи - Про Друзей
EXTD=
EXTT0=
EXTT1=
EXTT2=
EXTT3=
EXTT4=
EXTT5=
EXTT6=
EXTT7=
EXTT8=
EXTT9=
EXTT10=
EXTT11=
EXTT12=
EXTT13=
EXTT14=
EXTT15=
EXTT16=
EXTT17=
EXTT18=
EXTT19=
PLAYORDER=
